<svg width="40" height="40" viewBox="0 0 40 40" fill="none" xmlns="http://www.w3.org/2000/svg">
<path d="M34.6772 13.125C34.0412 13.1288 33.4324 13.3831 32.9827 13.8329C32.5331 14.2826 32.2789 14.8915 32.2753 15.5275V22.1388C31.5798 21.7421 30.7738 21.5835 29.9799 21.6874C29.186 21.7912 28.4479 22.1516 27.8778 22.7137L23.5728 26.6431C23.0386 27.1298 22.6117 27.7224 22.3195 28.3833C22.0272 29.0441 21.8759 29.7586 21.8753 30.4813V36.875C21.8753 37.0408 21.9411 37.1997 22.0583 37.3169C22.1755 37.4342 22.3345 37.5 22.5003 37.5H30.3609C30.5267 37.5 30.6856 37.4342 30.8028 37.3169C30.9201 37.1997 30.9859 37.0408 30.9859 36.875V35.2463C30.9855 34.6121 31.1912 33.9951 31.5722 33.4881L36.2453 27.2606C36.788 26.5379 37.0808 25.6582 37.0797 24.7544V15.5269C37.0787 14.8901 36.8252 14.2796 36.3748 13.8294C35.9245 13.3791 35.314 13.1258 34.6772 13.125ZM35.2447 26.5119L30.5709 32.7394C29.774 33.725 29.6815 35.035 29.7359 36.25H23.1253V30.4819C23.1256 29.9331 23.2404 29.3904 23.4623 28.8885C23.6842 28.3866 24.0083 27.9364 24.414 27.5669L28.7428 23.615C29.2039 23.1724 29.8186 22.9259 30.4577 22.9273C31.0968 22.9287 31.7105 23.1779 32.1697 23.6225C32.205 23.6579 32.2329 23.7001 32.2517 23.7464C32.2706 23.7928 32.28 23.8424 32.2795 23.8924C32.279 23.9425 32.2685 23.9919 32.2487 24.0378C32.2289 24.0838 32.2001 24.1253 32.164 24.16L27.3953 28.9287C27.2842 29.0472 27.2236 29.2041 27.2263 29.3664C27.2289 29.5287 27.2946 29.6836 27.4094 29.7984C27.5242 29.9131 27.6792 29.9787 27.8415 29.9812C28.0038 29.9837 28.1607 29.923 28.279 29.8119L33.0478 25.0438C33.3527 24.7356 33.5242 24.3198 33.5253 23.8862V15.5275C33.5249 15.3753 33.5551 15.2247 33.6142 15.0844C33.6732 14.9442 33.7599 14.8173 33.869 14.7113C34.0313 14.5541 34.236 14.4479 34.458 14.4058C34.6799 14.3637 34.9093 14.3875 35.1179 14.4743C35.3264 14.5611 35.505 14.7072 35.6315 14.8943C35.758 15.0815 35.8269 15.3016 35.8297 15.5275V24.7537C35.8307 25.3878 35.6254 26.0049 35.2447 26.5119ZM12.1447 22.735C11.5742 22.1668 10.8336 21.8009 10.0358 21.693C9.23794 21.5851 8.42672 21.7412 7.7259 22.1375V15.5275C7.64965 12.3713 3.00278 12.3525 2.9209 15.5275V24.7537C2.91973 25.6585 3.21304 26.5391 3.75653 27.2625L8.42715 33.4862C8.80876 33.9936 9.01497 34.6114 9.01465 35.2463V36.875C9.01465 37.0408 9.0805 37.1997 9.19771 37.3169C9.31492 37.4342 9.47389 37.5 9.63965 37.5H17.5003C17.666 37.5 17.825 37.4342 17.9422 37.3169C18.0594 37.1997 18.1253 37.0408 18.1253 36.875V30.4819C18.1248 29.7594 17.9737 29.045 17.6815 28.3842C17.3893 27.7234 16.9625 27.1309 16.4284 26.6444L12.1447 22.735ZM16.8753 36.25H10.2647C10.4248 35.0163 10.1273 33.7667 9.4284 32.7375L4.75653 26.5138C4.37516 26.0063 4.16937 25.3885 4.17028 24.7537V15.5275C4.17323 15.3009 4.24272 15.0801 4.37012 14.8926C4.49752 14.7052 4.6772 14.5593 4.88684 14.4731C5.09647 14.3869 5.32681 14.3643 5.54922 14.408C5.77163 14.4516 5.97629 14.5597 6.13778 14.7188C6.24528 14.8241 6.33054 14.95 6.38851 15.0889C6.44649 15.2278 6.47599 15.377 6.47528 15.5275V23.9062C6.47877 24.3333 6.65005 24.7419 6.95215 25.0438L11.7209 29.8125C11.8382 29.9297 11.9972 29.9955 12.163 29.9954C12.3288 29.9954 12.4878 29.9295 12.605 29.8122C12.7222 29.6949 12.788 29.5359 12.7879 29.3701C12.7878 29.2043 12.7219 29.0453 12.6047 28.9281L7.8359 24.16C7.79879 24.1249 7.76926 24.0826 7.74913 24.0357C7.729 23.9887 7.71871 23.9382 7.71889 23.8871C7.71906 23.836 7.7297 23.7855 7.75015 23.7387C7.7706 23.6919 7.80042 23.6498 7.83778 23.615C8.06471 23.3896 8.33397 23.2112 8.63007 23.0902C8.92617 22.9692 9.24327 22.9079 9.56313 22.9099C9.883 22.9119 10.1993 22.9771 10.4939 23.1017C10.7885 23.2264 11.0555 23.408 11.2797 23.6362L15.5859 27.5681C15.9917 27.9374 16.3159 28.3873 16.538 28.889C16.76 29.3907 16.8749 29.9332 16.8753 30.4819V36.25ZM12.8128 20.625H27.1878C27.6849 20.6245 28.1615 20.4268 28.5131 20.0753C28.8646 19.7238 29.0623 19.2471 29.0628 18.75V4.375C29.0623 3.87787 28.8646 3.40125 28.5131 3.04972C28.1615 2.6982 27.6849 2.5005 27.1878 2.5H12.8128C12.3156 2.5005 11.839 2.6982 11.4875 3.04972C11.136 3.40125 10.9383 3.87787 10.9378 4.375V18.75C10.9383 19.2471 11.136 19.7238 11.4875 20.0753C11.839 20.4268 12.3156 20.6245 12.8128 20.625ZM18.9378 3.75H21.0628V6.29562C20.7215 6.16188 20.1015 5.66687 19.7209 5.90437L18.9378 6.29562V3.75ZM12.1878 4.375C12.1878 4.20924 12.2536 4.05027 12.3708 3.93306C12.488 3.81585 12.647 3.75 12.8128 3.75H17.6878V7.30688C17.6877 7.41342 17.7149 7.51821 17.7668 7.6113C17.8186 7.70438 17.8934 7.78266 17.984 7.83871C18.0746 7.89475 18.1781 7.92671 18.2845 7.93153C18.3909 7.93635 18.4968 7.91388 18.5922 7.86625L20.0003 7.1625L21.4084 7.86625C21.5038 7.91262 21.6094 7.9341 21.7154 7.92871C21.8214 7.92332 21.9243 7.89123 22.0145 7.83541C22.1047 7.7796 22.1794 7.70188 22.2316 7.60947C22.2837 7.51706 22.3116 7.41297 22.3128 7.30688V3.75H27.1878C27.3535 3.75 27.5125 3.81585 27.6297 3.93306C27.7469 4.05027 27.8128 4.20924 27.8128 4.375V18.75C27.8128 18.9158 27.7469 19.0747 27.6297 19.1919C27.5125 19.3092 27.3535 19.375 27.1878 19.375H12.8128C12.647 19.375 12.488 19.3092 12.3708 19.1919C12.2536 19.0747 12.1878 18.9158 12.1878 18.75V4.375ZM13.724 16.38L16.4328 16.3806C16.5985 16.3806 16.7575 16.4465 16.8747 16.5637C16.9919 16.6809 17.0578 16.8399 17.0578 17.0056C17.0578 17.1714 16.9919 17.3304 16.8747 17.4476C16.7575 17.5648 16.5985 17.6306 16.4328 17.6306L13.724 17.63C13.5583 17.63 13.3993 17.5642 13.2821 17.4469C13.1649 17.3297 13.099 17.1708 13.099 17.005C13.099 16.8392 13.1649 16.6803 13.2821 16.5631C13.3993 16.4458 13.5583 16.38 13.724 16.38Z" fill="white"/>
</svg>
