<svg width="40" height="40" viewBox="0 0 40 40" fill="none" xmlns="http://www.w3.org/2000/svg">
<path d="M37.4321 12.3588L34.8358 7.16691C34.784 7.06311 34.7042 6.9758 34.6055 6.91476C34.5069 6.85372 34.3931 6.82135 34.2771 6.82129H5.72084C5.6048 6.82135 5.49107 6.85372 5.39239 6.91476C5.2937 6.9758 5.21396 7.06311 5.16209 7.16691L2.56584 12.3588C2.51965 12.4542 2.4983 12.5598 2.50377 12.6657C2.50924 12.7716 2.54135 12.8744 2.59714 12.9646C2.65292 13.0548 2.73056 13.1294 2.82287 13.1816C2.91519 13.2338 3.01918 13.2619 3.12521 13.2632H5.09396V30.16C5.09396 30.3258 5.15981 30.4848 5.27702 30.602C5.39423 30.7192 5.5532 30.785 5.71896 30.785H12.1433C12.3091 30.785 12.4681 30.7192 12.5853 30.602C12.7025 30.4848 12.7683 30.3258 12.7683 30.16C12.7683 29.9943 12.7025 29.8353 12.5853 29.7181C12.4681 29.6009 12.3091 29.535 12.1433 29.535H6.34334V13.2625H21.9458C22.0518 13.2625 22.1561 13.2355 22.2488 13.1841C22.3415 13.1327 22.4196 13.0586 22.4758 12.9688L24.5671 9.62316V19.2657C24.5671 19.4314 24.6329 19.5904 24.7501 19.7076C24.8674 19.8248 25.0263 19.8907 25.1921 19.8907C25.3578 19.8907 25.5168 19.8248 25.634 19.7076C25.7512 19.5904 25.8171 19.4314 25.8171 19.2657V9.62816L27.9058 12.9694C27.9621 13.0593 28.0402 13.1334 28.1329 13.1847C28.2256 13.2361 28.3298 13.2631 28.4358 13.2632H33.6546V29.5344H27.8546C27.6888 29.5344 27.5299 29.6003 27.4126 29.7175C27.2954 29.8347 27.2296 29.9937 27.2296 30.1594C27.2296 30.3252 27.2954 30.4841 27.4126 30.6014C27.5299 30.7186 27.6888 30.7844 27.8546 30.7844H34.2796C34.4453 30.7844 34.6043 30.7186 34.7215 30.6014C34.8387 30.4841 34.9046 30.3252 34.9046 30.1594V13.2625H36.8727C36.9788 13.2612 37.0827 13.2332 37.1751 13.181C37.2674 13.1288 37.345 13.0542 37.4008 12.964C37.4566 12.8738 37.4887 12.771 37.4942 12.6651C37.4996 12.5592 37.4783 12.4542 37.4321 12.3588ZM21.5996 12.0138H5.73084C5.72273 12.0111 5.71395 12.0111 5.70584 12.0138H4.13709L6.10771 8.07129H24.064L21.5996 12.0138ZM34.2915 12.0138C34.2802 12.0182 28.7996 12.01 28.7821 12.0138L26.3183 8.07129H33.8902L35.8615 12.0138H34.2915ZM19.999 19.4294C18.6392 19.4294 17.31 19.8326 16.1794 20.5881C15.0488 21.3435 14.1676 22.4172 13.6473 23.6735C13.1269 24.9297 12.9908 26.312 13.2561 27.6457C13.5213 28.9793 14.1761 30.2043 15.1376 31.1658C16.0991 32.1273 17.3241 32.782 18.6577 33.0473C19.9913 33.3126 21.3737 33.1764 22.6299 32.6561C23.8862 32.1357 24.9599 31.2545 25.7153 30.124C26.4708 28.9934 26.874 27.6642 26.874 26.3044C26.872 24.4817 26.147 22.7341 24.8581 21.4452C23.5692 20.1564 21.8217 19.4314 19.999 19.4294ZM19.999 31.9288C18.8864 31.9288 17.7989 31.5989 16.8739 30.9808C15.9489 30.3627 15.2279 29.4842 14.8021 28.4564C14.3764 27.4285 14.265 26.2976 14.482 25.2064C14.6991 24.1153 15.2348 23.113 16.0215 22.3263C16.8082 21.5396 17.8104 21.0039 18.9016 20.7869C19.9927 20.5698 21.1237 20.6812 22.1516 21.107C23.1794 21.5327 24.0579 22.2537 24.676 23.1787C25.2941 24.1037 25.624 25.1913 25.624 26.3038C25.6223 27.7951 25.0291 29.2249 23.9746 30.2794C22.9201 31.334 21.4903 31.9271 19.999 31.9288ZM22.9408 24.2463L20.8827 26.3038L22.9408 28.3619C23.0005 28.4196 23.0481 28.4885 23.0809 28.5648C23.1137 28.641 23.1309 28.7231 23.1316 28.806C23.1323 28.889 23.1165 28.9713 23.0851 29.0481C23.0537 29.1249 23.0073 29.1947 22.9486 29.2534C22.8899 29.3121 22.8201 29.3585 22.7433 29.3899C22.6665 29.4214 22.5842 29.4372 22.5012 29.4364C22.4182 29.4357 22.3362 29.4185 22.26 29.3857C22.1837 29.353 22.1147 29.3054 22.0571 29.2457L19.999 27.1875L17.9408 29.2457C17.8832 29.3054 17.8142 29.353 17.738 29.3857C17.6617 29.4185 17.5797 29.4357 17.4967 29.4364C17.4137 29.4372 17.3314 29.4214 17.2546 29.3899C17.1778 29.3585 17.108 29.3121 17.0493 29.2534C16.9907 29.1947 16.9443 29.1249 16.9128 29.0481C16.8814 28.9713 16.8656 28.889 16.8663 28.806C16.867 28.7231 16.8843 28.641 16.917 28.5648C16.9498 28.4885 16.9974 28.4196 17.0571 28.3619L19.1152 26.3038L17.0571 24.2457C16.9432 24.1278 16.8802 23.9699 16.8817 23.806C16.8831 23.6422 16.9488 23.4854 17.0647 23.3695C17.1806 23.2536 17.3373 23.1879 17.5012 23.1865C17.6651 23.1851 17.823 23.2481 17.9408 23.3619L19.9996 25.42L22.0577 23.3619C22.1756 23.2481 22.3335 23.1851 22.4973 23.1865C22.6612 23.1879 22.818 23.2536 22.9339 23.3695C23.0497 23.4854 23.1155 23.6422 23.1169 23.806C23.1183 23.9699 23.0553 24.1278 22.9415 24.2457L22.9408 24.2463Z" fill="white"/>
</svg>
