<svg width="40" height="40" viewBox="0 0 40 40" fill="none" xmlns="http://www.w3.org/2000/svg">
<path d="M35.7746 21.2285C35.3403 20.7952 34.752 20.5519 34.1386 20.5519C33.5251 20.5519 32.9368 20.7952 32.5025 21.2285L28.5469 25.1845L27.2562 23.8938C26.822 23.4596 26.2332 23.2157 25.6192 23.2156C25.0052 23.2156 24.4163 23.4595 23.9821 23.8937C23.548 24.3278 23.304 24.9167 23.304 25.5307C23.304 26.1446 23.5479 26.7335 23.982 27.1677C24.4795 27.6652 24.9702 28.2182 25.4446 28.7529C25.9152 29.2834 26.3598 29.7842 26.8084 30.2331C27.243 30.6666 27.8317 30.91 28.4454 30.91C29.0592 30.91 29.6479 30.6666 30.0824 30.2331C31.0368 29.2789 32.0003 28.3052 32.932 27.3635C33.8617 26.4238 34.8235 25.452 35.7749 24.5007C36.2075 24.0661 36.4504 23.4778 36.4504 22.8646C36.4504 22.2514 36.2075 21.6631 35.7749 21.2285L35.7746 21.2285ZM35.0012 23.7272C34.048 24.6803 33.0852 25.6533 32.1543 26.5944C31.2234 27.5355 30.261 28.5078 29.3088 29.46C29.0796 29.6887 28.7689 29.8172 28.4451 29.8172C28.1213 29.8172 27.8107 29.6887 27.5815 29.46C27.1559 29.0345 26.7221 28.5453 26.2624 28.0274C25.7773 27.4805 25.2757 26.9153 24.7552 26.3946C24.5261 26.1655 24.3974 25.8549 24.3974 25.5309C24.3974 25.207 24.5261 24.8963 24.7552 24.6673C24.9842 24.4382 25.2949 24.3096 25.6188 24.3096C25.9427 24.3096 26.2534 24.4382 26.4824 24.6673L28.1598 26.3448C28.2106 26.3956 28.2709 26.4359 28.3373 26.4634C28.4036 26.4908 28.4747 26.505 28.5466 26.505C28.6184 26.505 28.6895 26.4908 28.7559 26.4634C28.8222 26.4359 28.8825 26.3956 28.9333 26.3448L33.2759 22.0021C33.5047 21.7734 33.815 21.6448 34.1386 21.6448C34.4621 21.6448 34.7724 21.7734 35.0012 22.0022C35.23 22.231 35.3585 22.5413 35.3585 22.8648C35.3585 23.1884 35.23 23.4987 35.0012 23.7275V23.7272ZM39.2969 25.7309C39.2943 23.6931 38.632 21.7109 37.4091 20.0807C36.1862 18.4506 34.4684 17.2602 32.5127 16.6876V6.41214C32.5117 5.47301 32.1382 4.57264 31.4741 3.90857C30.81 3.2445 29.9097 2.87095 28.9705 2.86987H4.24531C3.30618 2.87095 2.40583 3.2445 1.74177 3.90857C1.07771 4.57264 0.70418 5.47301 0.703125 6.41214V33.5881C0.70418 34.5272 1.07771 35.4276 1.74177 36.0916C2.40583 36.7557 3.30618 37.1293 4.24531 37.1303H28.9705C29.6896 37.1274 30.391 36.9068 30.9823 36.4977C31.5736 36.0885 32.0273 35.51 32.2835 34.8381C34.2924 34.3045 36.0689 33.1225 37.3371 31.4757C38.6053 29.8289 39.2942 27.8094 39.2969 25.7309ZM31.419 6.41214V11.6381H21.5116V3.96362H28.9705C29.6197 3.96437 30.242 4.22258 30.7011 4.6816C31.1601 5.14063 31.4183 5.76299 31.419 6.41214ZM12.798 3.96362H20.4179V16.95L16.9353 14.3478C16.8408 14.2772 16.726 14.2391 16.608 14.2391C16.49 14.2391 16.3752 14.2772 16.2807 14.3478L12.798 16.9499V3.96362ZM4.24531 3.96362H11.7042V11.6381H1.79688V6.41214C1.79762 5.76299 2.05582 5.14065 2.51482 4.68163C2.97383 4.2226 3.59617 3.96439 4.24531 3.96362ZM28.9705 36.0366H4.24531C3.59617 36.0358 2.97383 35.7776 2.51482 35.3186C2.05582 34.8596 1.79762 34.2372 1.79688 33.5881V12.7318H11.7042V18.0412C11.7043 18.1426 11.7325 18.242 11.7858 18.3283C11.8391 18.4146 11.9154 18.4844 12.006 18.5298C12.0967 18.5753 12.1982 18.5946 12.2993 18.5857C12.4003 18.5767 12.4968 18.5399 12.5781 18.4792L16.608 15.4689L20.6374 18.4795C20.7187 18.5402 20.8153 18.5771 20.9164 18.5861C21.0175 18.5951 21.119 18.5758 21.2098 18.5303C21.3005 18.4849 21.3768 18.4151 21.4301 18.3287C21.4834 18.2424 21.5116 18.1429 21.5116 18.0414V12.7321H31.419V16.4391C30.0922 16.2192 28.7336 16.2859 27.4348 16.6349C26.1359 16.9839 24.9269 17.607 23.8889 18.4623C22.851 19.3175 22.0083 20.3852 21.4174 21.5934C20.8266 22.8016 20.5013 24.1223 20.4635 25.4667C20.4257 26.8111 20.6763 28.1479 21.1983 29.3874C21.7204 30.6269 22.5018 31.7402 23.4901 32.6524C24.4783 33.5646 25.6505 34.2547 26.9277 34.676C28.2049 35.0974 29.5575 35.2404 30.8946 35.0953C30.6658 35.3873 30.3738 35.6237 30.0406 35.7868C29.7073 35.9498 29.3415 36.0352 28.9705 36.0366ZM29.878 34.0561C28.2314 34.0561 26.6218 33.5679 25.2528 32.6531C23.8837 31.7383 22.8166 30.4381 22.1865 28.9169C21.5564 27.3957 21.3916 25.7218 21.7128 24.1068C22.034 22.4919 22.8269 21.0085 23.9912 19.8442C25.1555 18.6799 26.6388 17.887 28.2538 17.5658C29.8687 17.2445 31.5426 17.4094 33.0638 18.0395C34.585 18.6696 35.8853 19.7366 36.8 21.1057C37.7148 22.4748 38.2031 24.0843 38.2031 25.7309C38.2006 27.9381 37.3227 30.0542 35.762 31.615C34.2013 33.1757 32.0852 34.0536 29.878 34.0561Z" fill="white"/>
</svg>
