<svg width="40" height="40" viewBox="0 0 40 40" fill="none" xmlns="http://www.w3.org/2000/svg">
<path d="M37.4318 16.6801L34.8356 11.4882C34.7837 11.3844 34.704 11.2971 34.6053 11.2361C34.5066 11.175 34.3929 11.1427 34.2768 11.1426H5.72183C5.60569 11.1425 5.49182 11.1749 5.39302 11.2359C5.29421 11.297 5.21437 11.3843 5.16246 11.4882L2.56621 16.6801C2.51984 16.7755 2.49835 16.8811 2.50374 16.9871C2.50913 17.0931 2.54123 17.196 2.59704 17.2862C2.65286 17.3764 2.73058 17.4511 2.82299 17.5033C2.91539 17.5554 3.01948 17.5833 3.12558 17.5845H5.09433V34.4801C5.09433 34.6459 5.16018 34.8048 5.27739 34.922C5.3946 35.0392 5.55357 35.1051 5.71933 35.1051H12.1431C12.3088 35.1051 12.4678 35.0392 12.585 34.922C12.7022 34.8048 12.7681 34.6459 12.7681 34.4801C12.7681 34.3143 12.7022 34.1554 12.585 34.0382C12.4678 33.9209 12.3088 33.8551 12.1431 33.8551H6.34433V17.5845H21.9462C22.0521 17.5844 22.1562 17.5574 22.2488 17.506C22.3414 17.4546 22.4195 17.3805 22.4756 17.2907L24.5675 13.9445V23.5876C24.5675 23.7534 24.6333 23.9123 24.7505 24.0295C24.8677 24.1467 25.0267 24.2126 25.1925 24.2126C25.3582 24.2126 25.5172 24.1467 25.6344 24.0295C25.7516 23.9123 25.8175 23.7534 25.8175 23.5876V13.9482L27.9062 17.2907C27.9624 17.3806 28.0405 17.4547 28.1332 17.5061C28.2259 17.5575 28.3302 17.5845 28.4362 17.5845H33.6543V33.8551H27.855C27.6892 33.8551 27.5302 33.9209 27.413 34.0382C27.2958 34.1554 27.23 34.3143 27.23 34.4801C27.23 34.6459 27.2958 34.8048 27.413 34.922C27.5302 35.0392 27.6892 35.1051 27.855 35.1051H34.2793C34.4451 35.1051 34.6041 35.0392 34.7213 34.922C34.8385 34.8048 34.9043 34.6459 34.9043 34.4801V17.5845H36.8731C36.9791 17.5831 37.083 17.555 37.1752 17.5027C37.2674 17.4505 37.345 17.3758 37.4007 17.2857C37.4564 17.1955 37.4885 17.0927 37.4939 16.9869C37.4994 16.881 37.478 16.7755 37.4318 16.6801ZM21.5993 16.3345H5.73433C5.72458 16.3313 5.71408 16.3313 5.70433 16.3345H4.13683L6.10808 12.3926H24.0631L21.5993 16.3345ZM34.2943 16.3345C34.2768 16.3363 28.8068 16.3332 28.7825 16.3345L26.3187 12.3926H33.8906L35.8618 16.3345H34.2943ZM19.9993 23.7501C18.6395 23.75 17.3102 24.1531 16.1796 24.9085C15.0489 25.6639 14.1676 26.7376 13.6472 27.9939C13.1267 29.2501 12.9905 30.6325 13.2558 31.9662C13.521 33.2999 14.1758 34.5249 15.1373 35.4865C16.0989 36.448 17.3239 37.1028 18.6576 37.368C19.9913 37.6333 21.3737 37.4971 22.6299 36.9767C23.8862 36.4562 24.9599 35.5749 25.7153 34.4443C26.4707 33.3136 26.8738 31.9843 26.8737 30.6245C26.8717 28.8017 26.1468 27.0542 24.8579 25.7653C23.569 24.4764 21.8215 23.7515 19.9987 23.7495L19.9993 23.7501ZM19.9993 36.2488C18.8868 36.2488 17.7993 35.9189 16.8742 35.3009C15.9492 34.6828 15.2283 33.8043 14.8025 32.7764C14.3768 31.7486 14.2654 30.6176 14.4824 29.5265C14.6995 28.4353 15.2352 27.433 16.0219 26.6464C16.8085 25.8597 17.8108 25.324 18.9019 25.1069C19.9931 24.8899 21.1241 25.0013 22.1519 25.427C23.1798 25.8528 24.0583 26.5737 24.6763 27.4988C25.2944 28.4238 25.6243 29.5113 25.6243 30.6238C25.6227 32.1152 25.0295 33.545 23.975 34.5995C22.9204 35.654 21.4907 36.2472 19.9993 36.2488ZM15.495 6.27635C15.4353 6.21869 15.3876 6.14973 15.3549 6.07348C15.3221 5.99722 15.3049 5.91521 15.3042 5.83222C15.3035 5.74924 15.3193 5.66694 15.3507 5.59013C15.3821 5.51332 15.4285 5.44354 15.4872 5.38485C15.5459 5.32617 15.6157 5.27976 15.6925 5.24834C15.7693 5.21691 15.8516 5.2011 15.9346 5.20182C16.0176 5.20254 16.0996 5.21978 16.1758 5.25254C16.2521 5.28529 16.3211 5.33291 16.3787 5.3926L18.645 7.65885L23.62 2.68447C23.7384 2.57344 23.8953 2.51283 24.0576 2.51546C24.2199 2.5181 24.3748 2.58377 24.4896 2.6986C24.6043 2.81342 24.6699 2.96837 24.6724 3.13068C24.6749 3.29298 24.6142 3.4499 24.5031 3.56822L19.0868 8.98447C18.9696 9.10164 18.8107 9.16747 18.645 9.16747C18.4792 9.16747 18.3203 9.10164 18.2031 8.98447L15.495 6.27635ZM23.0881 30.6245C23.0881 30.7902 23.0222 30.9492 22.905 31.0664C22.7878 31.1836 22.6288 31.2495 22.4631 31.2495H19.9993C19.8336 31.2495 19.6746 31.1836 19.5574 31.0664C19.4402 30.9492 19.3743 30.7902 19.3743 30.6245V27.0701C19.3743 26.9043 19.4402 26.7454 19.5574 26.6282C19.6746 26.5109 19.8336 26.4451 19.9993 26.4451C20.1651 26.4451 20.3241 26.5109 20.4413 26.6282C20.5585 26.7454 20.6243 26.9043 20.6243 27.0701V29.9995H22.4631C22.6288 29.9995 22.7878 30.0653 22.905 30.1825C23.0222 30.2997 23.0881 30.4587 23.0881 30.6245Z" fill="white"/>
</svg>
