<svg width="143" height="142" viewBox="0 0 143 142" fill="none" xmlns="http://www.w3.org/2000/svg">
<path d="M107.328 108.036C106.706 108.036 106.11 107.79 105.669 107.352L95.2812 96.964C94.8543 96.522 94.618 95.93 94.6234 95.3154C94.6287 94.7009 94.8752 94.1131 95.3098 93.6785C95.7443 93.244 96.3321 92.9975 96.9467 92.9922C97.5612 92.9868 98.1532 93.2231 98.5953 93.65L108.983 104.037C109.31 104.365 109.532 104.782 109.622 105.236C109.712 105.69 109.666 106.161 109.489 106.588C109.312 107.016 109.012 107.382 108.627 107.639C108.243 107.897 107.791 108.035 107.328 108.036Z" fill="#444444"/>
<path d="M131.094 141.312C127.967 141.312 125.023 140.094 122.806 137.881L106.4 121.475C104.188 119.258 102.969 116.319 102.969 113.188C102.969 110.056 104.188 107.117 106.4 104.9C110.647 100.653 118.723 100.653 122.97 104.9L139.377 121.306C141.594 123.523 142.812 126.463 142.812 129.594C142.812 132.725 141.594 135.664 139.381 137.881C137.169 140.098 134.22 141.312 131.094 141.312ZM114.688 106.25C112.835 106.225 111.048 106.933 109.714 108.219C108.387 109.545 107.656 111.312 107.656 113.188C107.656 115.062 108.387 116.83 109.714 118.161L126.12 134.567C128.778 137.22 133.405 137.22 136.062 134.567C137.394 133.236 138.125 131.469 138.125 129.594C138.125 127.719 137.394 125.952 136.067 124.62L119.661 108.214C118.325 106.932 116.539 106.226 114.688 106.25ZM58.4375 113.188C27.4203 113.188 2.1875 87.9547 2.1875 56.9375C2.1875 25.9203 27.4203 0.6875 58.4375 0.6875C89.4547 0.6875 114.688 25.9203 114.688 56.9375C114.688 87.9547 89.4547 113.188 58.4375 113.188ZM58.4375 5.375C30.0078 5.375 6.875 28.5078 6.875 56.9375C6.875 85.3672 30.0078 108.5 58.4375 108.5C86.8672 108.5 110 85.3672 110 56.9375C110 28.5078 86.8672 5.375 58.4375 5.375Z" fill="#444444"/>
<path d="M107.328 108.036C106.706 108.036 106.11 107.79 105.669 107.352L95.2812 96.964C94.8543 96.522 94.618 95.93 94.6234 95.3154C94.6287 94.7009 94.8752 94.1131 95.3098 93.6785C95.7443 93.244 96.3321 92.9975 96.9467 92.9922C97.5612 92.9868 98.1532 93.2231 98.5953 93.65L108.983 104.037C109.31 104.365 109.532 104.782 109.622 105.236C109.712 105.69 109.666 106.161 109.489 106.588C109.312 107.016 109.012 107.382 108.627 107.639C108.243 107.897 107.791 108.035 107.328 108.036Z" fill="#999999"/>
<path d="M131.094 141.312C127.967 141.312 125.023 140.094 122.806 137.881L106.4 121.475C104.188 119.258 102.969 116.319 102.969 113.188C102.969 110.056 104.188 107.117 106.4 104.9C110.647 100.653 118.723 100.653 122.97 104.9L139.377 121.306C141.594 123.523 142.812 126.463 142.812 129.594C142.812 132.725 141.594 135.664 139.381 137.881C137.169 140.098 134.22 141.312 131.094 141.312ZM114.688 106.25C112.835 106.225 111.048 106.933 109.714 108.219C108.387 109.545 107.656 111.312 107.656 113.188C107.656 115.062 108.387 116.83 109.714 118.161L126.12 134.567C128.778 137.22 133.405 137.22 136.062 134.567C137.394 133.236 138.125 131.469 138.125 129.594C138.125 127.719 137.394 125.952 136.067 124.62L119.661 108.214C118.325 106.932 116.539 106.226 114.688 106.25ZM58.4375 113.188C27.4203 113.188 2.1875 87.9547 2.1875 56.9375C2.1875 25.9203 27.4203 0.6875 58.4375 0.6875C89.4547 0.6875 114.688 25.9203 114.688 56.9375C114.688 87.9547 89.4547 113.188 58.4375 113.188ZM58.4375 5.375C30.0078 5.375 6.875 28.5078 6.875 56.9375C6.875 85.3672 30.0078 108.5 58.4375 108.5C86.8672 108.5 110 85.3672 110 56.9375C110 28.5078 86.8672 5.375 58.4375 5.375Z" fill="#999999"/>
<path d="M0.596412 63.6516H12.15H20.5885C21.3839 63.6516 21.3826 63.6516 20.5885 63.6516H0.596412C-0.199452 63.6516 -0.198156 63.6516 0.596412 63.6516ZM0.596412 67L20.5885 67C21.3839 67 21.3826 67 20.5885 67L0.596412 67C0.596412 65.6375 -0.198156 67 0.596412 67ZM67.8689 58.0442C68.9931 60.8837 71.5899 62.7846 74.4056 62.7803C77.2227 62.776 79.8159 60.8894 80.9423 58.0442C81.2573 57.2482 80.194 56.5539 79.8764 57.3565C78.9185 59.7763 76.8269 61.415 74.4056 61.4178C71.9856 61.4207 69.8914 59.772 68.9348 57.3565C68.6177 56.5553 67.5535 57.2478 67.8689 58.0442ZM37.1932 58.0442C38.317 60.8837 40.9141 62.7846 43.7295 62.7803C46.5465 62.776 49.1398 60.8894 50.2662 58.0442C50.5811 57.2482 49.5178 56.5539 49.2003 57.3565C48.2424 59.7763 46.1507 61.415 43.7295 61.4178C41.3095 61.4207 39.2152 59.772 38.2591 57.3565C37.9415 56.5548 36.8778 57.2478 37.1932 58.0442Z" fill="#999999"/>
<path d="M62 72C62 72.7956 61.6839 73.5587 61.1213 74.1213C60.5587 74.6839 59.7957 75 59 75C58.2044 75 57.4413 74.6839 56.8787 74.1213C56.3161 73.5587 56 72.7956 56 72C56 71.2043 56.3161 70.4413 56.8787 69.8787C57.4413 69.3161 58.2044 69 59 69C59.7957 69 60.5587 69.3161 61.1213 69.8787C61.6839 70.4413 62 71.2043 62 72Z" fill="#999999"/>
</svg>
